<?xml version="1.0" encoding="utf-8"?>
<!-- Generator: Adobe Illustrator 16.0.0, SVG Export Plug-In . SVG Version: 6.00 Build 0)  -->
<!DOCTYPE svg PUBLIC "-//W3C//DTD SVG 1.1//EN" "http://www.w3.org/Graphics/SVG/1.1/DTD/svg11.dtd">
<svg version="1.1" id="Layer_1" xmlns="http://www.w3.org/2000/svg" xmlns:xlink="http://www.w3.org/1999/xlink" x="0px" y="0px"
	 width="349.96px" height="69.99px" viewBox="0 0 349.96 69.99" enable-background="new 0 0 349.96 69.99" xml:space="preserve">
<path fill="none" d="M51.417,7.832c-0.645,0-0.645-1,0-1S52.062,7.832,51.417,7.832z"/>
<circle fill="none" stroke="#21409A" stroke-width="1.7" stroke-miterlimit="10" cx="33.927" cy="26.536" r="24.097"/>
<g>
	<g>
		<path fill="none" stroke="#4656A6" stroke-miterlimit="10" d="M11.65,26.191"/>
	</g>
</g>
<g>
	<g>
		<path fill="none" stroke="#4656A6" stroke-miterlimit="10" d="M32.255,22.152"/>
	</g>
</g>
<path fill="none" stroke="#21409A" stroke-width="0.25" stroke-miterlimit="10" d="M57.671,22.152"/>
<path fill="none" stroke="#21409A" stroke-width="0.25" stroke-miterlimit="10" d="M10.65,22.152"/>
<path fill="none" stroke="#21409A" stroke-width="0.25" stroke-miterlimit="10" d="M57.555,30.77"/>
<path fill="none" stroke="#21409A" stroke-width="0.25" stroke-miterlimit="10" d="M10.535,30.77"/>
<path fill="none" stroke="#21409A" stroke-width="0.01" stroke-miterlimit="10" d="M57.671,26.191"/>
<path fill="none" stroke="#21409A" stroke-width="0.01" stroke-miterlimit="10" d="M57.539,26.177"/>
<path fill="none" stroke="#21409A" stroke-width="0.01" stroke-miterlimit="10" d="M10.354,26.191"/>
<path fill="none" stroke="#21409A" stroke-width="0.01" stroke-miterlimit="10" d="M33.889,2.008"/>
<path fill="none" stroke="#21409A" stroke-width="0.01" stroke-miterlimit="10" d="M33.874,49.242"/>
<path fill="none" stroke="#21409A" stroke-width="0.01" stroke-miterlimit="10" d="M33.889,49.11"/>
<path fill="none" stroke="#21409A" stroke-width="0.01" stroke-miterlimit="10" d="M33.825,2.008"/>
<path fill="none" stroke="#21409A" stroke-width="0.01" stroke-miterlimit="10" d="M64.451,19.938"/>
<path fill="none" stroke="#21409A" stroke-width="0.01" stroke-miterlimit="10" d="M17.458,26.179"/>
<g>
	<g>
		<path fill="none" stroke="#4656A6" stroke-miterlimit="10" d="M83.583,45.349"/>
	</g>
</g>
<g>
	<g>
		<g>
			<g>
				<polygon fill="#1B4695" points="57.538,26.154 57.538,26.194 37.958,30.104 33.978,49.885 33.888,49.885 29.898,30.104 
					10.358,26.194 10.358,26.154 29.978,22.234 33.888,2.654 33.978,2.654 37.918,22.154 				"/>
			</g>
		</g>
	</g>
</g>
<g>
	<g>
		<g>
			<g>
				<polygon fill="#ED2024" points="49.195,26.08 49.195,26.099 36.563,28.628 33.996,41.39 33.938,41.39 31.364,28.628 
					18.758,26.099 18.758,26.08 31.416,23.551 33.938,10.919 33.996,10.919 36.538,23.499 				"/>
			</g>
		</g>
	</g>
</g>
<g>
	<g>
		<g>
			<g>
				<polygon fill="#F9ED23" points="42.393,26.039 42.393,26.049 35.423,27.445 34.007,34.486 33.975,34.486 32.555,27.445 
					25.599,26.049 25.599,26.039 32.583,24.644 33.975,17.674 34.007,17.674 35.409,24.615 				"/>
			</g>
		</g>
	</g>
</g>
<g>
	<polygon fill="#1B4695" points="3.492,67.209 3.492,55.748 12.178,55.748 12.178,58.37 6.258,58.37 6.258,60 11.802,60 
		11.802,62.615 6.258,62.615 6.258,64.587 12.411,64.587 12.411,67.209 	"/>
	<path fill="#1B4695" d="M4.212,66.489V56.468h7.246v1.184h-5.92v3.068h5.544v1.176H5.538v3.412h6.152v1.184L4.212,66.489
		L4.212,66.489z"/>
	<polygon fill="#1B4695" points="16.594,67.209 12.153,55.748 15.147,55.748 17.78,63.108 20.517,55.748 23.426,55.748 
		18.938,67.209 	"/>
	<path fill="#1B4695" d="M17.087,66.489l-3.883-10.021h1.436l2.604,7.28c0.209,0.583,0.385,1.13,0.526,1.642
		c0.155-0.548,0.335-1.095,0.54-1.642l2.707-7.28h1.354l-3.924,10.021H17.087z"/>
	<polygon fill="#1B4695" points="30.397,67.209 26.238,60.987 26.238,67.209 23.526,67.209 23.526,55.748 25.992,55.748 
		30.15,61.965 30.15,55.748 32.862,55.748 32.862,67.209 	"/>
	<path fill="#1B4695" d="M24.247,66.489V56.468h1.36l5.264,7.868v-7.868h1.271v10.021h-1.36l-5.264-7.875v7.875H24.247z"/>
	<path fill="#ED2024" d="M39.227,67.38c-1.415,0-2.563-0.449-3.415-1.335c-0.843-0.879-1.271-2.12-1.271-3.69
		c0-1.98,0.611-3.651,1.817-4.965c1.104-1.203,2.494-1.813,4.133-1.813c1.234,0,2.261,0.346,3.051,1.029
		c0.797,0.688,1.265,1.619,1.39,2.764l0.079,0.729l-2.636,0.244l-0.119-0.648c-0.102-0.557-0.297-0.963-0.581-1.209
		c-0.279-0.241-0.647-0.359-1.124-0.359c-0.984,0-1.763,0.436-2.382,1.325c-0.576,0.821-0.855,1.78-0.855,2.932
		c0,0.837,0.19,1.468,0.565,1.867c0.367,0.396,0.841,0.585,1.449,0.585c0.528,0,0.996-0.17,1.428-0.52
		c0.451-0.361,0.773-0.875,0.987-1.564l0.181-0.585l2.813,0.394l-0.303,0.836c-0.467,1.287-1.167,2.281-2.081,2.959
		C41.431,67.034,40.378,67.38,39.227,67.38z"/>
	<path fill="#ED2024" d="M42.433,62.962l1.326,0.186c-0.419,1.156-1.03,2.031-1.832,2.625c-0.802,0.594-1.702,0.89-2.7,0.89
		c-1.217,0-2.182-0.371-2.895-1.114c-0.713-0.742-1.07-1.807-1.07-3.191c0-1.806,0.542-3.297,1.627-4.479
		c0.966-1.053,2.167-1.579,3.603-1.579c1.062,0,1.922,0.285,2.581,0.854c0.659,0.57,1.04,1.336,1.145,2.298l-1.251,0.116
		c-0.132-0.727-0.404-1.268-0.817-1.625c-0.413-0.356-0.944-0.535-1.596-0.535c-1.226,0-2.217,0.545-2.974,1.634
		c-0.656,0.938-0.984,2.053-0.984,3.343c0,1.03,0.253,1.816,0.759,2.358s1.165,0.813,1.976,0.813c0.693,0,1.319-0.228,1.88-0.679
		S42.178,63.787,42.433,62.962z"/>
	<path fill="#ED2024" d="M44.517,67.209l2.4-11.461h4.769c0.838,0,1.47,0.104,1.932,0.315c0.496,0.228,0.906,0.61,1.218,1.143
		c0.302,0.516,0.455,1.095,0.455,1.723c0,0.504-0.102,1.018-0.303,1.528c-0.2,0.508-0.462,0.94-0.78,1.285
		c-0.309,0.334-0.636,0.595-0.971,0.774c-0.319,0.17-0.665,0.299-1.028,0.381c-0.689,0.162-1.399,0.244-2.108,0.244h-1.923
		l-0.848,4.065L44.517,67.209L44.517,67.209z M50.038,60.567c0.931,0,1.377-0.115,1.587-0.211c0.274-0.127,0.49-0.316,0.657-0.578
		s0.249-0.528,0.249-0.815c0-0.188-0.029-0.337-0.085-0.428c-0.048-0.077-0.111-0.13-0.205-0.169
		c-0.024-0.012-0.239-0.092-1.061-0.092h-1.985l-0.479,2.293H50.038z"/>
	<path fill="#ED2024" d="M45.403,66.489l2.099-10.021h4.184c0.725,0,1.268,0.083,1.63,0.25c0.362,0.166,0.662,0.451,0.899,0.854
		c0.237,0.404,0.355,0.857,0.355,1.357c0,0.415-0.084,0.836-0.253,1.266s-0.382,0.781-0.639,1.061
		c-0.257,0.279-0.519,0.487-0.783,0.629c-0.264,0.143-0.547,0.246-0.848,0.313c-0.643,0.15-1.292,0.228-1.948,0.228H47.59
		l-0.848,4.067L45.403,66.489L45.403,66.489z M47.83,61.287h2.208c0.857,0,1.486-0.093,1.887-0.276
		c0.401-0.186,0.722-0.467,0.964-0.845c0.242-0.378,0.362-0.778,0.362-1.203c0-0.328-0.064-0.596-0.191-0.804
		c-0.127-0.207-0.308-0.359-0.54-0.457c-0.232-0.1-0.679-0.146-1.34-0.146h-2.57L47.83,61.287z"/>
	<path fill="#ED2024" d="M60.075,67.38c-1.415,0-2.563-0.449-3.415-1.335c-0.843-0.879-1.271-2.12-1.271-3.69
		c0-1.98,0.611-3.651,1.817-4.965c1.104-1.203,2.494-1.813,4.133-1.813c1.234,0,2.261,0.346,3.051,1.029
		c0.797,0.688,1.265,1.619,1.39,2.764l0.079,0.729l-2.636,0.244l-0.119-0.648c-0.102-0.557-0.297-0.963-0.581-1.209
		c-0.279-0.241-0.647-0.359-1.124-0.359c-0.984,0-1.763,0.436-2.382,1.325c-0.576,0.821-0.855,1.78-0.855,2.932
		c0,0.837,0.19,1.468,0.565,1.867c0.367,0.396,0.841,0.585,1.449,0.585c0.528,0,0.996-0.17,1.428-0.52
		c0.451-0.361,0.773-0.875,0.987-1.564l0.181-0.585l2.813,0.394l-0.303,0.836c-0.467,1.287-1.167,2.281-2.081,2.959
		C62.279,67.034,61.226,67.38,60.075,67.38z"/>
	<path fill="#ED2024" d="M63.281,62.962l1.326,0.186c-0.419,1.156-1.03,2.031-1.832,2.625c-0.802,0.594-1.702,0.89-2.7,0.89
		c-1.217,0-2.182-0.371-2.895-1.114c-0.713-0.742-1.07-1.807-1.07-3.191c0-1.806,0.542-3.297,1.627-4.479
		c0.966-1.053,2.167-1.579,3.603-1.579c1.062,0,1.922,0.285,2.581,0.854c0.659,0.57,1.04,1.336,1.145,2.298l-1.251,0.116
		c-0.132-0.727-0.404-1.268-0.817-1.625c-0.413-0.356-0.944-0.535-1.596-0.535c-1.226,0-2.217,0.545-2.974,1.634
		c-0.656,0.938-0.984,2.053-0.984,3.343c0,1.03,0.253,1.816,0.759,2.358c0.506,0.542,1.165,0.813,1.976,0.813
		c0.693,0,1.319-0.228,1.88-0.679S63.026,63.787,63.281,62.962z"/>
</g>
<g>
	<polygon fill="#1B4695" points="69.61,24.729 69.61,16.521 66.544,16.521 66.544,14.559 74.784,14.559 74.784,16.521 
		71.706,16.521 71.706,24.729 	"/>
	<path fill="#1B4695" d="M70.042,24.296v-8.207h-3.066V14.99h7.376v1.099h-3.079v8.207H70.042z"/>
	<path fill="#1B4695" d="M80.34,24.887c-0.954,0-1.82-0.235-2.575-0.699c-0.758-0.464-1.34-1.108-1.73-1.912
		c-0.382-0.788-0.577-1.633-0.577-2.512c0-1.652,0.458-2.973,1.363-3.925c0.275-0.29,0.575-0.536,0.9-0.739h-0.889l2.741-1.614
		c-0.093,0.008-0.169,0.018-0.228,0.027l-0.425,0.071l-0.216-1.279l0.443-0.06c0.138-0.019,0.375-0.03,0.71-0.03l0.202,0.001
		c0.563,0.002,2.068,0.008,2.122,0.986c0.016,0.321-0.149,0.531-0.377,0.669L83.88,15.1h-0.94c0.736,0.451,1.306,1.079,1.695,1.868
		c0.39,0.792,0.587,1.696,0.587,2.688c0,1.008-0.208,1.927-0.619,2.729c-0.419,0.819-1.023,1.45-1.796,1.874
		C82.048,24.675,81.218,24.887,80.34,24.887z M80.353,16.318c-0.764,0-1.403,0.254-1.952,0.778
		c-0.537,0.511-0.809,1.415-0.809,2.687c0,1.018,0.258,1.788,0.788,2.355c0.522,0.56,1.162,0.832,1.954,0.832
		c0.808,0,1.452-0.274,1.97-0.838c0.521-0.566,0.784-1.401,0.784-2.481c0-0.692-0.116-1.3-0.346-1.805
		c-0.222-0.491-0.536-0.86-0.96-1.128C81.356,16.449,80.889,16.318,80.353,16.318z"/>
	<path fill="#1B4695" d="M75.891,19.764c0-1.545,0.415-2.754,1.244-3.628c0.829-0.874,1.9-1.311,3.212-1.311
		c0.859,0,1.633,0.205,2.323,0.615c0.69,0.411,1.215,0.983,1.578,1.718c0.361,0.734,0.542,1.566,0.542,2.497
		c0,0.944-0.19,1.788-0.571,2.533c-0.381,0.745-0.92,1.309-1.619,1.691c-0.699,0.382-1.452,0.574-2.26,0.574
		c-0.876,0-1.659-0.211-2.349-0.635c-0.69-0.423-1.212-1-1.568-1.732S75.891,20.581,75.891,19.764z M77.16,19.783
		c0,1.122,0.301,2.005,0.905,2.65c0.603,0.646,1.359,0.969,2.269,0.969c0.927,0,1.689-0.326,2.289-0.979
		c0.599-0.651,0.898-1.576,0.898-2.773c0-0.758-0.128-1.419-0.384-1.983c-0.256-0.565-0.63-1.003-1.123-1.314
		c-0.493-0.311-1.046-0.466-1.66-0.466c-0.872,0-1.622,0.299-2.25,0.897C77.474,17.382,77.16,18.382,77.16,19.783z M80.359,14.242
		l-0.832,0.426h-1.111l1.327-0.781h1.238l1.32,0.781H81.19L80.359,14.242z M80.448,13.467c0.208-0.047,0.313-0.116,0.317-0.21
		c0.004-0.055-0.051-0.102-0.165-0.139c-0.165-0.056-0.425-0.083-0.781-0.083c-0.034,0-0.114,0.005-0.241,0.016
		c-0.127,0.011-0.229,0.022-0.305,0.035l-0.07-0.413c0.152-0.021,0.436-0.029,0.851-0.025c1.109,0.004,1.674,0.197,1.695,0.578
		c0.013,0.267-0.345,0.43-1.073,0.488v0.141h-0.59v-0.35C80.251,13.497,80.372,13.484,80.448,13.467z"/>
	<polygon fill="#1B4695" points="92.852,24.729 88.627,18.408 88.627,24.729 86.582,24.729 86.582,14.559 88.508,14.559 
		92.733,20.874 92.733,14.559 94.778,14.559 94.778,24.729 	"/>
	<path fill="#1B4695" d="M87.014,24.296V14.99h1.263l4.888,7.306V14.99h1.181v9.306h-1.263l-4.888-7.313v7.313H87.014z"/>
	<path fill="#1B4695" d="M101.509,24.887c-0.981,0-1.887-0.214-2.692-0.636c-0.824-0.432-1.456-1.066-1.875-1.884
		c-0.411-0.798-0.619-1.7-0.619-2.679c0-0.966,0.206-1.883,0.611-2.724c0.417-0.865,1.03-1.518,1.82-1.941
		c0.772-0.414,1.667-0.624,2.661-0.624c0.725,0,1.393,0.121,1.985,0.358c0.612,0.245,1.102,0.596,1.457,1.043
		c0.346,0.436,0.609,1.002,0.785,1.685l0.105,0.412l-1.929,0.529l-0.12-0.407c-0.124-0.421-0.275-0.75-0.449-0.976
		c-0.161-0.209-0.401-0.383-0.714-0.516c-0.329-0.14-0.704-0.21-1.114-0.21c-0.504,0-0.939,0.075-1.293,0.223
		c-0.35,0.146-0.631,0.336-0.839,0.566c-0.219,0.242-0.39,0.511-0.51,0.798c-0.214,0.519-0.322,1.093-0.322,1.706
		c0,0.756,0.128,1.391,0.381,1.886c0.245,0.479,0.59,0.823,1.055,1.053c0.484,0.24,1.004,0.361,1.547,0.361
		c0.475,0,0.946-0.093,1.4-0.276c0.369-0.149,0.666-0.305,0.885-0.464v-1.094h-2.736v-1.955l4.806-0.007v4.094l-0.163,0.13
		c-0.638,0.508-1.307,0.897-1.989,1.155C102.954,24.754,102.236,24.887,101.509,24.887z"/>
	<path fill="#1B4695" d="M101.42,20.646v-1.092l3.942-0.006v3.453c-0.605,0.482-1.229,0.846-1.873,1.089
		c-0.644,0.243-1.303,0.364-1.98,0.364c-0.914,0-1.745-0.195-2.491-0.587c-0.747-0.392-1.311-0.957-1.692-1.698
		c-0.381-0.74-0.571-1.567-0.571-2.481c0-0.905,0.189-1.751,0.568-2.536c0.379-0.785,0.924-1.367,1.635-1.748
		c0.711-0.381,1.53-0.572,2.457-0.572c0.673,0,1.281,0.109,1.825,0.327c0.544,0.218,0.97,0.521,1.279,0.911
		c0.309,0.39,0.544,0.897,0.705,1.523l-1.111,0.305c-0.14-0.474-0.313-0.847-0.521-1.117c-0.208-0.271-0.503-0.487-0.889-0.65
		c-0.386-0.163-0.813-0.244-1.282-0.244c-0.563,0-1.049,0.085-1.46,0.257c-0.411,0.171-0.742,0.396-0.993,0.676
		c-0.252,0.279-0.448,0.586-0.587,0.921c-0.237,0.575-0.355,1.199-0.355,1.872c0,0.829,0.143,1.523,0.428,2.082
		c0.286,0.559,0.702,0.974,1.248,1.244c0.546,0.27,1.125,0.406,1.739,0.406c0.533,0,1.054-0.103,1.562-0.308
		c0.508-0.205,0.893-0.425,1.155-0.657v-1.733L101.42,20.646L101.42,20.646z"/>
	<path fill="#1B4695" d="M116.107,24.887c-1.083,0-1.986-0.229-2.682-0.682c-0.7-0.454-1.237-1.117-1.597-1.969
		c-0.349-0.823-0.526-1.719-0.526-2.662c0-1.034,0.203-1.954,0.604-2.733c0.408-0.796,1-1.411,1.757-1.825
		c0.745-0.408,1.574-0.616,2.464-0.616c1.021,0,1.898,0.268,2.607,0.797c0.709,0.53,1.208,1.279,1.483,2.226l0.126,0.437
		l-2.044,0.481l-0.122-0.381c-0.187-0.587-0.452-1.013-0.788-1.265c-0.336-0.253-0.758-0.376-1.289-0.376
		c-0.621,0-1.139,0.146-1.542,0.433c-0.408,0.292-0.688,0.673-0.854,1.167c-0.179,0.529-0.269,1.084-0.269,1.649
		c0,0.733,0.106,1.377,0.316,1.915c0.197,0.503,0.49,0.867,0.896,1.11c0.423,0.254,0.867,0.377,1.358,0.377
		c0.591,0,1.074-0.163,1.476-0.498c0.4-0.333,0.678-0.847,0.825-1.53l0.095-0.437l2.085,0.527l-0.107,0.419
		c-0.281,1.1-0.801,1.957-1.544,2.545C118.09,24.587,117.172,24.887,116.107,24.887z"/>
	<path fill="#1B4695" d="M118.729,21.034l1.231,0.312c-0.258,1.011-0.723,1.782-1.394,2.313c-0.67,0.531-1.49,0.796-2.459,0.796
		c-1.003,0-1.819-0.204-2.447-0.612c-0.629-0.408-1.107-0.999-1.435-1.774c-0.328-0.773-0.492-1.605-0.492-2.494
		c0-0.969,0.185-1.814,0.556-2.536c0.37-0.722,0.897-1.27,1.58-1.644c0.684-0.375,1.436-0.563,2.257-0.563
		c0.931,0,1.714,0.237,2.349,0.711c0.635,0.475,1.077,1.141,1.327,2l-1.212,0.285c-0.216-0.677-0.529-1.17-0.939-1.479
		c-0.41-0.309-0.927-0.463-1.549-0.463c-0.715,0-1.313,0.171-1.793,0.514c-0.48,0.343-0.818,0.803-1.013,1.381
		c-0.195,0.577-0.292,1.173-0.292,1.787c0,0.791,0.115,1.481,0.346,2.072c0.231,0.59,0.589,1.031,1.076,1.323
		c0.487,0.292,1.014,0.438,1.581,0.438c0.69,0,1.274-0.199,1.752-0.598C118.235,22.407,118.559,21.817,118.729,21.034z"/>
	<path fill="#1B4695" d="M126.202,24.887c-0.954,0-1.82-0.235-2.575-0.699c-0.758-0.464-1.34-1.108-1.73-1.912
		c-0.382-0.788-0.577-1.633-0.577-2.512c0-1.652,0.458-2.973,1.363-3.925c0.399-0.42,0.851-0.75,1.354-0.987h-0.751l2.038-2.642
		h1.638l2.123,2.642h-0.743c0.14,0.065,0.277,0.138,0.412,0.218c0.759,0.453,1.346,1.091,1.744,1.898
		c0.39,0.792,0.587,1.696,0.587,2.688c0,1.008-0.208,1.927-0.619,2.729c-0.419,0.819-1.023,1.45-1.796,1.874
		C127.91,24.675,127.08,24.887,126.202,24.887z M126.215,16.318c-0.764,0-1.403,0.254-1.952,0.778
		c-0.537,0.511-0.809,1.415-0.809,2.687c0,1.018,0.258,1.788,0.788,2.355c0.522,0.56,1.162,0.832,1.954,0.832
		c0.808,0,1.452-0.274,1.97-0.838c0.521-0.566,0.784-1.401,0.784-2.481c0-0.692-0.116-1.3-0.346-1.805
		c-0.222-0.491-0.536-0.86-0.96-1.128C127.218,16.449,126.75,16.318,126.215,16.318z"/>
	<path fill="#1B4695" d="M121.752,19.764c0-1.545,0.415-2.754,1.244-3.628c0.829-0.874,1.9-1.311,3.212-1.311
		c0.859,0,1.633,0.205,2.323,0.615c0.69,0.411,1.215,0.983,1.578,1.718c0.361,0.734,0.542,1.566,0.542,2.497
		c0,0.944-0.19,1.788-0.571,2.533s-0.92,1.309-1.619,1.691c-0.699,0.382-1.452,0.574-2.26,0.574c-0.876,0-1.659-0.211-2.349-0.635
		c-0.69-0.423-1.212-1-1.568-1.732S121.752,20.581,121.752,19.764z M123.022,19.783c0,1.122,0.301,2.005,0.905,2.65
		c0.603,0.646,1.359,0.969,2.269,0.969c0.927,0,1.689-0.326,2.289-0.979c0.599-0.651,0.898-1.576,0.898-2.773
		c0-0.758-0.128-1.419-0.384-1.983c-0.256-0.565-0.63-1.003-1.123-1.314s-1.046-0.466-1.66-0.466c-0.872,0-1.622,0.299-2.25,0.897
		C123.336,17.382,123.022,18.382,123.022,19.783z M126.189,13.34l-0.717,1.079h-1.308l1.371-1.777h1.219l1.428,1.777h-1.295
		L126.189,13.34z"/>
	<polygon fill="#1B4695" points="138.713,24.729 134.489,18.408 134.489,24.729 132.444,24.729 132.444,14.559 134.37,14.559 
		138.595,20.874 138.595,14.559 140.64,14.559 140.64,24.729 	"/>
	<path fill="#1B4695" d="M132.876,24.296V14.99h1.263l4.888,7.306V14.99h1.181v9.306h-1.263l-4.888-7.313v7.313H132.876z"/>
	<path fill="#1B4695" d="M147.371,24.887c-0.981,0-1.887-0.214-2.692-0.636c-0.824-0.432-1.456-1.066-1.875-1.884
		c-0.411-0.798-0.619-1.7-0.619-2.679c0-0.966,0.206-1.883,0.611-2.724c0.417-0.865,1.03-1.518,1.82-1.941
		c0.772-0.414,1.667-0.624,2.661-0.624c0.725,0,1.393,0.121,1.985,0.358c0.612,0.245,1.102,0.596,1.457,1.043
		c0.346,0.436,0.609,1.002,0.785,1.685l0.105,0.412l-1.929,0.529l-0.12-0.407c-0.124-0.421-0.275-0.75-0.449-0.976
		c-0.161-0.209-0.401-0.383-0.714-0.516c-0.329-0.14-0.704-0.21-1.114-0.21c-0.504,0-0.939,0.075-1.293,0.223
		c-0.35,0.146-0.631,0.336-0.839,0.566c-0.219,0.242-0.39,0.511-0.51,0.798c-0.214,0.519-0.322,1.093-0.322,1.706
		c0,0.756,0.128,1.391,0.381,1.886c0.245,0.479,0.59,0.823,1.055,1.053c0.484,0.24,1.004,0.361,1.547,0.361
		c0.475,0,0.946-0.093,1.4-0.276c0.369-0.149,0.666-0.305,0.885-0.464v-1.094h-2.736v-1.955l4.806-0.007v4.094l-0.163,0.13
		c-0.638,0.508-1.307,0.897-1.989,1.155C148.815,24.754,148.098,24.887,147.371,24.887z"/>
	<path fill="#1B4695" d="M147.282,20.646v-1.092l3.942-0.006v3.453c-0.605,0.482-1.229,0.846-1.873,1.089
		c-0.644,0.243-1.303,0.364-1.98,0.364c-0.914,0-1.745-0.195-2.491-0.587c-0.747-0.392-1.311-0.957-1.692-1.698
		c-0.381-0.74-0.571-1.567-0.571-2.481c0-0.905,0.189-1.751,0.568-2.536c0.379-0.785,0.924-1.367,1.635-1.748
		c0.711-0.381,1.53-0.572,2.457-0.572c0.673,0,1.281,0.109,1.825,0.327c0.544,0.218,0.97,0.521,1.279,0.911
		c0.309,0.39,0.544,0.897,0.705,1.523l-1.111,0.305c-0.14-0.474-0.313-0.847-0.521-1.117c-0.208-0.271-0.503-0.487-0.889-0.65
		c-0.386-0.163-0.813-0.244-1.282-0.244c-0.563,0-1.049,0.085-1.46,0.257c-0.411,0.171-0.742,0.396-0.993,0.676
		c-0.252,0.279-0.448,0.586-0.587,0.921c-0.237,0.575-0.355,1.199-0.355,1.872c0,0.829,0.143,1.523,0.428,2.082
		c0.286,0.559,0.702,0.974,1.248,1.244s1.125,0.406,1.739,0.406c0.533,0,1.054-0.103,1.562-0.308
		c0.508-0.205,0.893-0.425,1.155-0.657v-1.733L147.282,20.646L147.282,20.646z"/>
	<polygon fill="#1B4695" points="159.651,24.729 159.651,16.521 156.585,16.521 156.585,14.559 164.826,14.559 164.826,16.521 
		161.747,16.521 161.747,24.729 	"/>
	<path fill="#1B4695" d="M160.083,24.296v-8.207h-3.066V14.99h7.376v1.099h-3.079v8.207H160.083z"/>
	<path fill="#1B4695" d="M168.496,24.729v-4.242l-3.963-5.928h2.541l1.962,3.001c0.206,0.318,0.402,0.636,0.59,0.954
		c0.195-0.32,0.411-0.661,0.648-1.024l1.932-2.931h2.492l-4.106,5.931v4.239H168.496z"/>
	<path fill="#1B4695" d="M168.928,24.296v-3.941l-3.586-5.364h1.498l1.834,2.806c0.338,0.524,0.654,1.05,0.946,1.574
		c0.279-0.486,0.618-1.035,1.016-1.645l1.803-2.735h1.435l-3.713,5.364v3.941H168.928z"/>
	<path fill="#1B4695" d="M179.223,24.729v-4.234h-1.021v-1.702h1.021V14.56h3.644c0.764,0,1.336,0.048,1.75,0.146
		c0.596,0.136,1.116,0.392,1.547,0.758c0.543,0.46,0.955,1.055,1.227,1.766c0.261,0.693,0.395,1.488,0.395,2.366
		c0,1.003-0.164,1.885-0.488,2.62c-0.33,0.75-0.739,1.31-1.217,1.663c-0.466,0.341-1.004,0.587-1.604,0.732
		c-0.339,0.081-0.813,0.12-1.46,0.12h-3.791L179.223,24.729L179.223,24.729z M182.873,22.767c0.568,0,1.01-0.05,1.313-0.15
		c0.28-0.092,0.5-0.218,0.653-0.372c0.244-0.242,0.438-0.581,0.582-1.006c0.148-0.445,0.227-1.003,0.227-1.659
		c0-0.671-0.072-1.208-0.218-1.594c-0.142-0.375-0.322-0.676-0.539-0.894c-0.21-0.21-0.446-0.357-0.7-0.438
		c-0.191-0.061-0.58-0.132-1.35-0.132h-1.523v2.271h2.564v1.702h-2.564v2.272H182.873z"/>
	<path fill="#1B4695" d="M179.654,24.296v-4.234h-1.021v-0.838h1.021v-4.233h3.213c0.719,0,1.271,0.044,1.649,0.134
		c0.532,0.122,0.987,0.345,1.364,0.666c0.49,0.415,0.856,0.944,1.103,1.59c0.243,0.646,0.365,1.383,0.365,2.213
		c0,0.947-0.149,1.763-0.451,2.446c-0.301,0.683-0.66,1.18-1.079,1.489c-0.419,0.309-0.9,0.528-1.447,0.66
		c-0.3,0.071-0.752,0.107-1.356,0.107H179.654z M180.886,23.199h1.986c0.619,0,1.102-0.058,1.446-0.172
		c0.347-0.114,0.622-0.273,0.825-0.477c0.292-0.291,0.521-0.683,0.688-1.174c0.164-0.491,0.248-1.09,0.248-1.797
		c0-0.728-0.082-1.31-0.244-1.745c-0.164-0.436-0.377-0.785-0.641-1.048c-0.262-0.262-0.555-0.443-0.876-0.545
		c-0.319-0.102-0.813-0.152-1.479-0.152h-1.955v3.135h2.564v0.838h-2.564v3.137H180.886z"/>
	<rect x="189.471" y="14.559" fill="#1B4695" width="2.095" height="10.17"/>
	<path fill="#1B4695" d="M189.902,24.296V14.99h1.23v9.306H189.902z"/>
	<polygon fill="#1B4695" points="196.367,26.791 196.367,24.729 193.548,24.729 193.548,14.559 194.724,14.559 196.598,13.454 
		198.072,13.454 199.938,14.559 201.14,14.559 201.14,16.521 195.644,16.521 195.644,18.507 200.791,18.507 200.791,20.463 
		195.644,20.463 195.644,22.767 201.356,22.767 201.356,24.729 198.531,24.729 198.531,26.791 	"/>
	<path fill="#1B4695" d="M193.979,24.296V14.99h6.729v1.099h-5.496v2.85h5.146v1.092h-5.146v3.168h5.713v1.098L193.979,24.296
		L193.979,24.296z M197.332,14.242l-0.832,0.426h-1.108l1.325-0.781h1.238l1.319,0.781h-1.11L197.332,14.242z M196.798,26.359
		v-1.301h1.302v1.301H196.798z"/>
	<polygon fill="#1B4695" points="209.101,24.729 204.875,18.408 204.875,24.729 202.832,24.729 202.832,14.559 204.757,14.559 
		208.981,20.874 208.981,14.559 211.026,14.559 211.026,24.729 	"/>
	<path fill="#1B4695" d="M203.263,24.296V14.99h1.264l4.887,7.306V14.99h1.184v9.306h-1.266l-4.888-7.313v7.313H203.263z"/>
	<polygon fill="#1B4695" points="217.093,24.729 217.093,14.559 219.188,14.559 219.188,22.767 223.771,22.767 223.771,24.729 	"/>
	<path fill="#1B4695" d="M217.524,24.296V14.99h1.231v8.208h4.582v1.098H217.524z"/>
	<path fill="#1B4695" d="M227.994,26.791v-2.002c-1.268-0.232-2.127-0.877-2.563-1.926c-0.262-0.628-0.389-1.444-0.389-2.496v-5.808
		h2.096v5.802c0,0.743,0.066,1.292,0.199,1.634c0.107,0.285,0.297,0.5,0.578,0.659c0.301,0.171,0.682,0.258,1.133,0.258
		c0.793,0,1.336-0.158,1.611-0.47c0.215-0.241,0.471-0.795,0.471-2.081v-5.802h2.095v3.03c0.28-0.099,0.491-0.261,0.642-0.49
		c0.006-0.011,0.053-0.093,0.081-0.349h-0.577v-2.191h2.09v1.48c0,0.758-0.092,1.269-0.287,1.606
		c-0.428,0.749-1.082,1.197-1.946,1.334v1.387c0,1.018-0.113,1.799-0.349,2.388c-0.254,0.639-0.694,1.159-1.313,1.546
		c-0.396,0.246-0.862,0.416-1.401,0.506v1.983h-2.168v0.002H227.994z"/>
	<path fill="#1B4695" d="M233.802,16.318v-1.327h1.226v1.048c0,0.664-0.075,1.127-0.229,1.39c-0.418,0.732-1.088,1.119-2.006,1.161
		v1.777c0,0.953-0.104,1.695-0.315,2.229c-0.222,0.555-0.603,1.001-1.144,1.34c-0.556,0.347-1.279,0.52-2.179,0.52
		c-1.729,0-2.839-0.586-3.325-1.758c-0.235-0.567-0.354-1.344-0.354-2.33v-5.376h1.231v5.37c0,0.8,0.076,1.396,0.229,1.79
		c0.146,0.377,0.397,0.67,0.769,0.879c0.367,0.21,0.815,0.314,1.346,0.314c0.928,0,1.572-0.205,1.937-0.616
		c0.386-0.432,0.578-1.221,0.578-2.367v-5.37h1.231v3.13c0.66-0.068,1.139-0.33,1.435-0.787c0.114-0.178,0.172-0.517,0.172-1.016
		L233.802,16.318L233.802,16.318z M228.425,26.359v-1.301h1.303v1.301H228.425z"/>
	<path fill="#1B4695" d="M241.227,24.887c-1.084,0-1.985-0.229-2.683-0.682c-0.699-0.454-1.236-1.116-1.599-1.968
		c-0.35-0.823-0.524-1.719-0.524-2.663c0-1.033,0.201-1.953,0.603-2.733c0.409-0.797,1-1.411,1.759-1.825
		c0.743-0.408,1.572-0.616,2.463-0.616c1.021,0,1.898,0.268,2.607,0.797c0.709,0.531,1.208,1.279,1.482,2.226l0.125,0.437
		l-2.043,0.481l-0.121-0.381c-0.188-0.587-0.451-1.012-0.787-1.265c-0.336-0.253-0.758-0.376-1.289-0.376
		c-0.629,0-1.135,0.142-1.542,0.433c-0.409,0.292-0.688,0.673-0.854,1.167c-0.179,0.531-0.27,1.086-0.27,1.649
		c0,0.733,0.105,1.377,0.316,1.915c0.194,0.503,0.487,0.866,0.896,1.11c0.422,0.254,0.866,0.377,1.358,0.377
		c0.59,0,1.071-0.163,1.476-0.498c0.399-0.333,0.678-0.848,0.825-1.53l0.094-0.437l2.085,0.527l-0.106,0.419
		c-0.281,1.1-0.801,1.956-1.543,2.545C243.208,24.587,242.291,24.887,241.227,24.887z"/>
	<path fill="#1B4695" d="M243.848,21.034l1.231,0.312c-0.26,1.011-0.725,1.782-1.396,2.313c-0.671,0.531-1.49,0.796-2.459,0.796
		c-1.004,0-1.817-0.204-2.447-0.612c-0.629-0.408-1.104-0.999-1.435-1.774c-0.328-0.773-0.492-1.605-0.492-2.494
		c0-0.969,0.188-1.814,0.557-2.536c0.369-0.722,0.896-1.27,1.579-1.644c0.685-0.375,1.437-0.563,2.259-0.563
		c0.93,0,1.713,0.237,2.349,0.711c0.635,0.475,1.077,1.141,1.325,2l-1.211,0.285c-0.217-0.677-0.529-1.17-0.939-1.479
		s-0.928-0.463-1.549-0.463c-0.715,0-1.313,0.171-1.793,0.514c-0.48,0.343-0.818,0.803-1.014,1.381
		c-0.193,0.577-0.291,1.173-0.291,1.787c0,0.791,0.113,1.481,0.346,2.072c0.229,0.59,0.59,1.031,1.076,1.323
		c0.484,0.292,1.014,0.438,1.58,0.438c0.688,0,1.272-0.199,1.752-0.598C243.354,22.407,243.679,21.817,243.848,21.034z"/>
	<path fill="#1B4695" d="M258.731,24.729v-5.66l-1.965,5.66h-1.728l-1.951-5.74v5.74h-2.051v-10.17h2.598
		c0,0,2.328,6.965,2.341,7.004c0.026-0.077,2.409-7.004,2.409-7.004h2.396v10.17H258.731z"/>
	<path fill="#1B4695" d="M251.47,24.296V14.99h1.854l2.203,6.589c0.203,0.613,0.352,1.072,0.443,1.377
		c0.105-0.338,0.271-0.835,0.496-1.491l2.228-6.475h1.657v9.306h-1.188v-7.789l-2.705,7.789h-1.109l-2.691-7.922v7.922H251.47z"/>
	<rect x="262.766" y="14.559" fill="#1B4695" width="2.094" height="10.17"/>
	<path fill="#1B4695" d="M263.197,24.296V14.99h1.23v9.306H263.197z"/>
	<polygon fill="#1B4695" points="266.843,24.729 266.843,14.559 268.017,14.559 269.611,13.62 267.562,12.216 270.589,12.216 
		271.935,13.791 273.232,14.559 274.435,14.559 274.435,16.521 268.938,16.521 268.938,18.507 274.085,18.507 274.085,20.463 
		268.938,20.463 268.938,22.767 274.65,22.767 274.65,24.729 	"/>
	<path fill="#1B4695" d="M267.274,24.296V14.99h6.729v1.099h-5.498v2.85h5.147v1.092h-5.147v3.168h5.714v1.098L267.274,24.296
		L267.274,24.296z M270.626,14.242l-0.832,0.426h-1.11l1.326-0.781h1.237l1.319,0.781h-1.11L270.626,14.242z M271.248,13.652h-0.824
		l-1.467-1.003h1.436L271.248,13.652z"/>
	<polygon fill="#1B4695" points="282.396,24.729 278.169,18.408 278.169,24.729 276.126,24.729 276.126,14.559 278.052,14.559 
		282.276,20.874 282.276,14.559 284.321,14.559 284.321,24.729 	"/>
	<path fill="#1B4695" d="M276.558,24.296V14.99h1.264l4.887,7.306V14.99h1.184v9.306h-1.266l-4.888-7.313v7.313H276.558z"/>
	<polygon fill="#1B4695" points="292.57,24.729 292.57,16.521 289.503,16.521 289.503,14.559 297.744,14.559 297.744,16.521 
		294.664,16.521 294.664,24.729 	"/>
	<path fill="#1B4695" d="M293.001,24.296v-8.207h-3.065V14.99h7.376v1.099h-3.079v8.207H293.001z"/>
	<path fill="#1B4695" d="M305.66,24.729l-1.356-2.136c-0.353-0.545-0.646-0.966-0.864-1.249c-0.252-0.319-0.422-0.461-0.521-0.523
		c-0.143-0.092-0.287-0.157-0.432-0.192c-0.049-0.01-0.211-0.032-0.582-0.032h-0.996v4.133h-2.096V14.56h4.559
		c0.892,0,1.562,0.092,2.047,0.28c0.521,0.202,0.94,0.559,1.248,1.063c0.299,0.491,0.449,1.039,0.449,1.628
		c0,0.772-0.255,1.434-0.759,1.966c-0.308,0.326-0.713,0.578-1.214,0.755c0.369,0.347,0.721,0.775,1.047,1.277l2.044,3.201
		L305.66,24.729L305.66,24.729z M303.123,18.665c0.512,0,0.904-0.049,1.172-0.147c0.229-0.083,0.396-0.21,0.511-0.387
		c0.118-0.186,0.179-0.382,0.179-0.601c0-0.318-0.105-0.56-0.334-0.762c-0.234-0.21-0.646-0.317-1.229-0.317h-2.514v2.214H303.123z"
		/>
	<path fill="#1B4695" d="M299.244,24.296V14.99h4.127c0.83,0,1.459,0.084,1.893,0.251c0.432,0.167,0.775,0.462,1.033,0.885
		c0.26,0.424,0.389,0.892,0.389,1.403c0,0.66-0.213,1.217-0.643,1.669c-0.428,0.453-1.088,0.741-1.979,0.863
		c0.326,0.157,0.573,0.312,0.742,0.464c0.359,0.33,0.699,0.743,1.021,1.237l1.617,2.533h-1.549l-1.23-1.936
		c-0.358-0.559-0.656-0.986-0.889-1.283c-0.232-0.296-0.441-0.503-0.626-0.621c-0.185-0.119-0.371-0.201-0.562-0.248
		c-0.142-0.029-0.368-0.045-0.688-0.045h-1.428v4.133L299.244,24.296L299.244,24.296z M300.477,19.097h2.646
		c0.563,0,1.004-0.058,1.32-0.174c0.316-0.116,0.559-0.303,0.725-0.559c0.164-0.256,0.246-0.534,0.246-0.835
		c0-0.44-0.158-0.802-0.479-1.085c-0.318-0.284-0.824-0.426-1.514-0.426h-2.945L300.477,19.097L300.477,19.097z"/>
	<path fill="#1B4695" d="M312.964,24.887c-0.941,0-1.729-0.169-2.346-0.502c-0.642-0.348-1.104-0.858-1.381-1.519
		c-0.262-0.63-0.389-1.447-0.389-2.499v-5.808h2.096v5.802c0,0.752,0.064,1.3,0.195,1.629c0.113,0.291,0.306,0.509,0.585,0.667
		c0.299,0.169,0.679,0.255,1.13,0.255c0.775,0,1.322-0.161,1.62-0.479c0.211-0.224,0.462-0.765,0.462-2.072v-5.802h2.095v5.808
		c0,1-0.112,1.779-0.346,2.384c-0.246,0.638-0.688,1.16-1.32,1.554C314.748,24.691,313.939,24.887,312.964,24.887z"/>
	<path fill="#1B4695" d="M315.371,14.991h1.23v5.376c0,0.936-0.105,1.679-0.316,2.229c-0.213,0.55-0.595,0.998-1.146,1.343
		c-0.554,0.345-1.277,0.517-2.177,0.517c-0.871,0-1.584-0.149-2.139-0.45c-0.555-0.301-0.949-0.735-1.188-1.305
		c-0.236-0.569-0.355-1.347-0.355-2.333v-5.376h1.232v5.37c0,0.809,0.074,1.404,0.225,1.787c0.151,0.383,0.408,0.678,0.774,0.885
		c0.366,0.208,0.813,0.312,1.343,0.312c0.904,0,1.551-0.205,1.936-0.616c0.388-0.41,0.578-1.199,0.578-2.367v-5.372H315.371z"/>
	<polygon fill="#1B4695" points="325.128,24.729 320.902,18.408 320.902,24.729 318.858,24.729 318.858,14.559 320.785,14.559 
		325.009,20.874 325.009,14.559 327.054,14.559 327.054,24.729 	"/>
	<path fill="#1B4695" d="M319.291,24.296V14.99h1.265l4.887,7.306V14.99h1.183v9.306h-1.265l-4.888-7.313v7.313H319.291z"/>
	<path fill="#1B4695" d="M333.785,24.887c-0.979,0-1.887-0.214-2.689-0.636c-0.824-0.432-1.455-1.066-1.875-1.884
		c-0.412-0.799-0.62-1.701-0.62-2.679c0-0.967,0.205-1.883,0.61-2.724c0.416-0.864,1.028-1.518,1.818-1.941
		c0.771-0.414,1.668-0.624,2.661-0.624c0.724,0,1.392,0.121,1.983,0.358c0.613,0.245,1.104,0.596,1.459,1.044
		c0.345,0.436,0.609,1.002,0.783,1.684l0.105,0.412l-1.932,0.529l-0.118-0.407c-0.124-0.421-0.275-0.75-0.449-0.977
		c-0.16-0.209-0.399-0.382-0.715-0.515c-0.328-0.14-0.703-0.21-1.113-0.21c-0.505,0-0.938,0.075-1.293,0.223
		c-0.351,0.146-0.631,0.336-0.84,0.567c-0.217,0.241-0.39,0.509-0.511,0.798c-0.213,0.519-0.321,1.094-0.321,1.705
		c0,0.755,0.129,1.39,0.382,1.886c0.245,0.478,0.592,0.823,1.057,1.054c0.489,0.243,0.996,0.361,1.547,0.361
		c0.476,0,0.945-0.093,1.397-0.276c0.37-0.149,0.667-0.305,0.888-0.464v-1.094h-2.735v-1.955l4.805-0.007v4.094l-0.161,0.13
		c-0.639,0.509-1.308,0.897-1.99,1.155C335.229,24.755,334.512,24.887,333.785,24.887z"/>
	<path fill="#1B4695" d="M333.696,20.646v-1.092l3.941-0.006v3.453c-0.604,0.482-1.229,0.846-1.872,1.089
		c-0.643,0.243-1.305,0.364-1.98,0.364c-0.914,0-1.744-0.195-2.49-0.587c-0.748-0.392-1.312-0.957-1.69-1.698
		c-0.381-0.74-0.571-1.567-0.571-2.481c0-0.905,0.188-1.751,0.567-2.536c0.379-0.785,0.924-1.367,1.635-1.748
		c0.711-0.381,1.529-0.572,2.457-0.572c0.672,0,1.28,0.109,1.824,0.327c0.544,0.218,0.971,0.521,1.278,0.911
		c0.309,0.39,0.543,0.897,0.705,1.523l-1.11,0.305c-0.142-0.474-0.313-0.847-0.521-1.117c-0.207-0.271-0.505-0.487-0.89-0.65
		s-0.813-0.244-1.282-0.244c-0.563,0-1.05,0.085-1.46,0.257c-0.409,0.171-0.739,0.396-0.991,0.676
		c-0.254,0.28-0.447,0.586-0.59,0.921c-0.234,0.575-0.354,1.199-0.354,1.872c0,0.829,0.144,1.523,0.429,2.082
		c0.286,0.559,0.702,0.974,1.247,1.244c0.547,0.271,1.126,0.406,1.74,0.406c0.533,0,1.053-0.103,1.561-0.308
		s0.895-0.425,1.156-0.657v-1.733L333.696,20.646L333.696,20.646z"/>
</g>
<g>
	<polygon fill="#ED2024" points="69.556,43.483 69.556,35.276 66.49,35.276 66.49,33.313 74.73,33.313 74.73,35.276 71.652,35.276 
		71.652,43.483 	"/>
	<path fill="#ED2024" d="M69.988,43.051v-8.207h-3.066v-1.098h7.376v1.098H71.22v8.207H69.988z"/>
	<path fill="#ED2024" d="M82.646,43.483l-1.359-2.137c-0.35-0.546-0.641-0.966-0.864-1.248c-0.251-0.32-0.421-0.464-0.519-0.524
		c-0.143-0.093-0.288-0.156-0.43-0.191c-0.049-0.01-0.208-0.03-0.583-0.03h-0.996v4.131h-2.096V33.314h4.558
		c0.892,0,1.562,0.092,2.048,0.28c0.52,0.201,0.939,0.559,1.247,1.063c0.299,0.49,0.451,1.037,0.451,1.628
		c0,0.771-0.255,1.432-0.759,1.965c-0.307,0.326-0.713,0.578-1.213,0.756c0.369,0.349,0.72,0.775,1.046,1.277l2.045,3.2H82.646z
		 M80.109,37.42c0.509,0,0.904-0.049,1.172-0.147c0.229-0.084,0.396-0.209,0.509-0.388c0.12-0.186,0.178-0.383,0.178-0.6
		c0-0.318-0.106-0.562-0.334-0.763c-0.236-0.209-0.649-0.316-1.227-0.316h-2.513v2.214H80.109z"/>
	<path fill="#ED2024" d="M76.23,43.051v-9.305h4.126c0.83,0,1.46,0.083,1.892,0.251c0.432,0.167,0.776,0.462,1.035,0.885
		c0.259,0.423,0.387,0.891,0.387,1.403c0,0.659-0.214,1.217-0.641,1.669c-0.427,0.452-1.087,0.74-1.98,0.863
		c0.326,0.156,0.573,0.312,0.743,0.464c0.36,0.329,0.7,0.741,1.022,1.237l1.619,2.53h-1.549l-1.231-1.937
		c-0.36-0.559-0.656-0.985-0.889-1.281c-0.233-0.296-0.441-0.503-0.625-0.622c-0.184-0.119-0.371-0.201-0.562-0.248
		c-0.14-0.028-0.368-0.044-0.686-0.044h-1.428v4.132L76.23,43.051L76.23,43.051z M77.462,37.853h2.647
		c0.563,0,1.003-0.058,1.32-0.174c0.317-0.117,0.559-0.304,0.724-0.56c0.165-0.257,0.248-0.534,0.248-0.834
		c0-0.44-0.16-0.802-0.479-1.086c-0.32-0.284-0.824-0.425-1.514-0.425h-2.945L77.462,37.853L77.462,37.853z"/>
	<path fill="#ED2024" d="M89.95,43.644c-0.94,0-1.729-0.17-2.345-0.504c-0.641-0.349-1.105-0.856-1.38-1.519
		c-0.261-0.629-0.389-1.445-0.389-2.499v-5.809h2.096v5.802c0,0.935,0.106,1.401,0.195,1.631c0.114,0.289,0.305,0.508,0.585,0.666
		c0.298,0.17,0.678,0.255,1.129,0.255c0.777,0,1.323-0.161,1.621-0.479c0.21-0.226,0.46-0.768,0.46-2.072v-5.802h2.096v5.809
		c0,0.997-0.113,1.776-0.346,2.383c-0.245,0.636-0.688,1.159-1.32,1.554C91.733,43.444,90.925,43.644,89.95,43.644z"/>
	<path fill="#ED2024" d="M92.356,33.746h1.231v5.376c0,0.936-0.106,1.678-0.317,2.229s-0.594,0.998-1.146,1.344
		c-0.553,0.345-1.277,0.518-2.174,0.518c-0.872,0-1.585-0.148-2.139-0.449c-0.554-0.302-0.95-0.736-1.187-1.306
		s-0.355-1.349-0.355-2.333v-5.376H87.5v5.37c0,0.809,0.075,1.402,0.225,1.785c0.15,0.385,0.409,0.68,0.774,0.888
		c0.366,0.208,0.814,0.313,1.343,0.313c0.906,0,1.551-0.205,1.936-0.617c0.385-0.41,0.578-1.199,0.578-2.367V33.746z"/>
	<polygon fill="#ED2024" points="102.113,43.483 97.888,37.162 97.888,43.483 95.843,43.483 95.843,33.313 97.77,33.313 
		101.994,39.629 101.994,33.313 104.039,33.313 104.039,43.483 	"/>
	<path fill="#ED2024" d="M96.275,43.051v-9.305h1.263l4.888,7.306v-7.306h1.181v9.305h-1.263l-4.888-7.312v7.312H96.275z"/>
	<path fill="#ED2024" d="M110.77,43.644c-0.98,0-1.886-0.215-2.692-0.638c-0.824-0.432-1.455-1.065-1.875-1.883
		c-0.411-0.8-0.619-1.701-0.619-2.681c0-0.967,0.206-1.883,0.611-2.725c0.418-0.866,1.03-1.519,1.82-1.942
		c0.771-0.413,1.667-0.623,2.661-0.623c0.725,0,1.393,0.121,1.985,0.358c0.612,0.246,1.102,0.596,1.457,1.043
		c0.346,0.435,0.609,1.001,0.785,1.683l0.105,0.412l-1.929,0.529l-0.12-0.406c-0.124-0.422-0.275-0.75-0.449-0.978
		c-0.161-0.209-0.401-0.383-0.714-0.515c-0.33-0.14-0.705-0.21-1.114-0.21c-0.503,0-0.938,0.075-1.293,0.224
		c-0.35,0.146-0.631,0.336-0.839,0.566c-0.218,0.242-0.39,0.51-0.51,0.797c-0.213,0.52-0.322,1.094-0.322,1.707
		c0,0.756,0.128,1.391,0.381,1.885c0.245,0.479,0.59,0.822,1.055,1.055c0.483,0.238,1.003,0.36,1.547,0.36
		c0.475,0,0.946-0.093,1.4-0.276c0.37-0.147,0.667-0.305,0.885-0.463v-1.094h-2.736v-1.955l4.806-0.008v4.094l-0.163,0.129
		c-0.637,0.508-1.306,0.896-1.989,1.155C112.214,43.51,111.496,43.644,110.77,43.644z"/>
	<path fill="#ED2024" d="M110.681,39.401V38.31l3.942-0.006v3.452c-0.605,0.481-1.229,0.847-1.873,1.091
		c-0.643,0.241-1.303,0.363-1.98,0.363c-0.914,0-1.745-0.195-2.491-0.587c-0.747-0.392-1.311-0.957-1.692-1.698
		c-0.381-0.74-0.571-1.566-0.571-2.48c0-0.905,0.189-1.752,0.568-2.536c0.379-0.785,0.924-1.368,1.635-1.749
		c0.711-0.381,1.53-0.571,2.457-0.571c0.673,0,1.281,0.109,1.825,0.327c0.544,0.218,0.97,0.522,1.279,0.911
		c0.309,0.389,0.544,0.896,0.705,1.522l-1.111,0.305c-0.14-0.475-0.313-0.846-0.521-1.116c-0.208-0.271-0.503-0.488-0.889-0.65
		c-0.385-0.163-0.813-0.245-1.282-0.245c-0.563,0-1.049,0.085-1.46,0.257c-0.411,0.171-0.742,0.396-0.993,0.676
		c-0.252,0.277-0.448,0.586-0.587,0.92c-0.237,0.574-0.355,1.197-0.355,1.873c0,0.828,0.143,1.521,0.428,2.082
		c0.286,0.559,0.702,0.973,1.248,1.242c0.546,0.271,1.125,0.406,1.739,0.406c0.533,0,1.054-0.104,1.562-0.309
		c0.508-0.205,0.893-0.424,1.155-0.656v-1.732H110.681L110.681,39.401z"/>
	<polygon fill="#ED2024" points="123.05,43.483 123.05,35.276 119.984,35.276 119.984,33.313 128.225,33.313 128.225,35.276 
		125.146,35.276 125.146,43.483 	"/>
	<path fill="#ED2024" d="M123.482,43.051v-8.207h-3.066v-1.098h7.376v1.098h-3.079v8.207H123.482z"/>
	<path fill="#ED2024" d="M135.693,43.483l-1.085-2.818h-3.292l-1.022,2.818h-2.239l3.793-9.877h-1.834l2.038-2.642h1.638
		l2.123,2.642h-1.818l4.042,9.877H135.693z M133.899,38.798c0,0-0.895-2.378-0.96-2.558c-0.045,0.137-0.092,0.272-0.142,0.409
		l-0.805,2.146L133.899,38.798L133.899,38.798z M133.191,33.313l-0.279-0.431l-0.286,0.431H133.191z"/>
	<path fill="#ED2024" d="M128.684,43.051l3.574-9.305h1.327l3.809,9.305h-1.403l-1.085-2.817h-3.891l-1.022,2.817H128.684z
		 M132.917,32.095l-0.717,1.079h-1.308l1.371-1.777h1.219l1.428,1.777h-1.295L132.917,32.095z M131.369,39.229h3.155l-0.971-2.578
		c-0.296-0.781-0.516-1.425-0.66-1.928c-0.119,0.597-0.286,1.189-0.501,1.777L131.369,39.229z"/>
	<path fill="#ED2024" d="M146.25,43.483v-5.659l-1.965,5.659h-1.728l-1.95-5.739v5.739h-2.051v-10.17h2.597
		c0,0,2.328,6.965,2.341,7.004c0.026-0.075,2.41-7.004,2.41-7.004h2.397v10.17H146.25z"/>
	<path fill="#ED2024" d="M138.989,43.051v-9.305h1.854l2.203,6.588c0.203,0.614,0.351,1.073,0.444,1.378
		c0.106-0.339,0.271-0.836,0.495-1.49l2.228-6.476h1.657v9.305h-1.187v-7.788l-2.704,7.788h-1.111l-2.691-7.921v7.921H138.989z"/>
	<path fill="#ED2024" d="M158.786,43.644c-1.084,0-1.986-0.229-2.683-0.685c-0.699-0.453-1.236-1.115-1.597-1.967
		c-0.349-0.824-0.526-1.722-0.526-2.664c0-1.033,0.203-1.953,0.604-2.733c0.409-0.797,1-1.411,1.757-1.825
		c0.744-0.408,1.573-0.615,2.464-0.615c1.022,0,1.899,0.268,2.607,0.797c0.709,0.53,1.208,1.278,1.483,2.225l0.126,0.438
		l-2.044,0.481l-0.122-0.382c-0.187-0.588-0.452-1.013-0.788-1.266c-0.336-0.253-0.758-0.376-1.289-0.376
		c-0.62,0-1.139,0.146-1.542,0.434c-0.408,0.292-0.688,0.674-0.854,1.167c-0.179,0.529-0.269,1.084-0.269,1.647
		c0,0.734,0.106,1.379,0.316,1.916c0.197,0.504,0.49,0.867,0.896,1.109c0.422,0.254,0.867,0.377,1.358,0.377
		c0.591,0,1.074-0.162,1.476-0.496c0.4-0.334,0.678-0.85,0.825-1.531l0.095-0.438l2.085,0.527l-0.107,0.42
		c-0.281,1.101-0.8,1.957-1.544,2.545C160.768,43.343,159.85,43.644,158.786,43.644z"/>
	<path fill="#ED2024" d="M161.407,39.789l1.231,0.312c-0.258,1.012-0.723,1.782-1.394,2.313c-0.67,0.53-1.49,0.796-2.459,0.796
		c-1.003,0-1.819-0.204-2.447-0.611c-0.629-0.408-1.107-1-1.435-1.773c-0.328-0.774-0.492-1.606-0.492-2.495
		c0-0.97,0.185-1.813,0.556-2.536c0.37-0.721,0.897-1.27,1.58-1.644c0.684-0.375,1.436-0.562,2.257-0.562
		c0.931,0,1.714,0.237,2.349,0.711c0.635,0.474,1.077,1.141,1.327,1.999l-1.212,0.286c-0.216-0.677-0.529-1.17-0.939-1.479
		c-0.41-0.309-0.927-0.463-1.549-0.463c-0.715,0-1.313,0.171-1.793,0.514c-0.48,0.343-0.818,0.803-1.013,1.38
		c-0.195,0.576-0.292,1.174-0.292,1.785c0,0.791,0.115,1.482,0.346,2.072s0.589,1.031,1.076,1.324
		c0.487,0.291,1.014,0.438,1.581,0.438c0.69,0,1.274-0.199,1.752-0.597C160.915,41.161,161.238,40.571,161.407,39.789z"/>
	<polygon fill="#ED2024" points="170.48,43.483 170.48,39.099 166.507,39.099 166.507,43.483 164.412,43.483 164.412,33.313 
		166.507,33.313 166.507,37.135 170.48,37.135 170.48,33.313 172.576,33.313 172.576,43.483 	"/>
	<path fill="#ED2024" d="M164.844,43.051v-9.305h1.231v3.821h4.837v-3.821h1.231v9.305h-1.231v-4.386h-4.837v4.386H164.844z"/>
	<path fill="#ED2024" d="M180.832,43.483l-1.086-2.818h-3.291l-1.021,2.818h-2.24l3.876-10.09c-0.182-0.082-0.346-0.187-0.49-0.315
		c-0.406-0.353-0.65-0.856-0.729-1.497l-0.059-0.483h1.619l0.07,0.346c0.038,0.186,0.105,0.318,0.199,0.394
		c0.098,0.078,0.244,0.117,0.438,0.117c0.301,0,0.443-0.062,0.512-0.114c0.092-0.071,0.156-0.205,0.195-0.397l0.07-0.346h1.623
		l-0.061,0.484c-0.076,0.636-0.32,1.138-0.729,1.492c-0.189,0.168-0.412,0.297-0.66,0.386l4.104,10.023H180.832z M179.037,38.798
		c0,0-0.895-2.378-0.961-2.558c-0.045,0.137-0.092,0.272-0.143,0.409l-0.805,2.146L179.037,38.798L179.037,38.798z"/>
	<path fill="#ED2024" d="M173.821,43.051l3.574-9.305h1.327l3.809,9.305h-1.402l-1.086-2.817h-3.892l-1.021,2.817H173.821z
		 M179.25,31.53h0.781c-0.064,0.529-0.258,0.935-0.582,1.219s-0.754,0.425-1.291,0.425c-0.543,0-0.976-0.141-1.299-0.422
		c-0.324-0.282-0.518-0.689-0.581-1.222h0.781c0.06,0.288,0.176,0.502,0.353,0.644c0.176,0.142,0.412,0.213,0.707,0.213
		c0.344,0,0.604-0.069,0.777-0.206C179.072,32.043,179.189,31.827,179.25,31.53z M176.507,39.229h3.154l-0.972-2.578
		c-0.297-0.781-0.519-1.425-0.661-1.928c-0.117,0.597-0.283,1.189-0.502,1.777L176.507,39.229z"/>
	<path fill="#ED2024" d="M191.389,43.483v-5.66l-1.968,5.66h-1.728l-1.948-5.739v5.739h-2.052v-10.17h2.597
		c0,0,2.328,6.965,2.342,7.004c0.024-0.076,2.408-7.004,2.408-7.004h2.397v10.17H191.389z"/>
	<path fill="#ED2024" d="M184.126,43.051v-9.305h1.854l2.203,6.588c0.203,0.614,0.352,1.073,0.441,1.378
		c0.105-0.339,0.271-0.836,0.496-1.49l2.229-6.476h1.656v9.305h-1.188v-7.788l-2.705,7.788h-1.109l-2.689-7.921v7.921H184.126z"/>
	<path fill="#ED2024" d="M203.453,43.644c-0.896,0-1.668-0.138-2.287-0.403c-0.645-0.277-1.158-0.703-1.527-1.269
		c-0.367-0.558-0.563-1.195-0.582-1.896l-0.014-0.408l1.984-0.173l0.049,0.417c0.047,0.394,0.152,0.713,0.314,0.955
		c0.154,0.227,0.406,0.418,0.75,0.567c0.367,0.158,0.789,0.239,1.256,0.239c0.414,0,0.779-0.062,1.088-0.181
		c0.277-0.108,0.482-0.251,0.607-0.426c0.123-0.168,0.184-0.349,0.184-0.543c0-0.195-0.055-0.358-0.164-0.5
		c-0.117-0.151-0.342-0.293-0.65-0.409c-0.164-0.064-0.57-0.19-1.604-0.438c-0.898-0.217-1.52-0.419-1.898-0.619
		c-0.51-0.269-0.896-0.609-1.152-1.019c-0.264-0.413-0.396-0.88-0.396-1.39c0-0.553,0.158-1.076,0.471-1.553
		c0.313-0.479,0.771-0.848,1.363-1.093c0.563-0.232,1.193-0.35,1.873-0.35c0.746,0,1.416,0.124,1.994,0.368
		c0.604,0.255,1.078,0.639,1.408,1.142c0.324,0.496,0.502,1.063,0.527,1.686l0.016,0.418l-2.016,0.15l-0.043-0.416
		c-0.051-0.475-0.211-0.816-0.488-1.045c-0.285-0.233-0.738-0.352-1.348-0.352c-0.631,0-1.104,0.108-1.357,0.314
		c-0.238,0.19-0.35,0.397-0.35,0.649c0,0.211,0.066,0.371,0.219,0.504c0.064,0.062,0.375,0.272,1.662,0.563
		c1.043,0.236,1.744,0.439,2.145,0.622c0.613,0.283,1.078,0.652,1.379,1.102c0.307,0.453,0.461,0.979,0.461,1.564
		c0,0.576-0.166,1.126-0.496,1.635c-0.326,0.506-0.799,0.902-1.401,1.18C204.841,43.506,204.178,43.644,203.453,43.644z"/>
	<path fill="#ED2024" d="M199.486,40.062l1.162-0.102c0.055,0.466,0.184,0.848,0.385,1.146c0.201,0.297,0.512,0.539,0.938,0.725
		c0.424,0.184,0.896,0.275,1.428,0.275c0.473,0,0.885-0.07,1.244-0.209c0.357-0.143,0.627-0.332,0.803-0.574
		c0.178-0.244,0.266-0.51,0.266-0.797c0-0.293-0.084-0.547-0.254-0.768c-0.168-0.218-0.447-0.398-0.838-0.549
		c-0.25-0.1-0.803-0.248-1.656-0.453c-0.855-0.206-1.453-0.398-1.797-0.582c-0.443-0.23-0.775-0.521-0.992-0.863
		c-0.219-0.348-0.328-0.732-0.328-1.16c0-0.469,0.133-0.908,0.4-1.316c0.266-0.409,0.654-0.719,1.168-0.93
		c0.512-0.211,1.082-0.317,1.707-0.317c0.688,0,1.299,0.111,1.824,0.333c0.523,0.222,0.934,0.549,1.217,0.98
		c0.281,0.431,0.436,0.92,0.457,1.466l-1.184,0.089c-0.063-0.588-0.277-1.033-0.645-1.333s-0.908-0.451-1.623-0.451
		c-0.744,0-1.287,0.137-1.627,0.409c-0.342,0.273-0.512,0.602-0.512,0.986c0,0.336,0.121,0.608,0.361,0.826
		c0.238,0.215,0.855,0.438,1.857,0.662c1,0.228,1.688,0.426,2.059,0.594c0.543,0.25,0.943,0.565,1.201,0.949
		c0.258,0.383,0.387,0.823,0.387,1.323c0,0.494-0.143,0.961-0.426,1.397c-0.283,0.438-0.689,0.779-1.221,1.022
		c-0.531,0.242-1.129,0.364-1.795,0.364c-0.844,0-1.549-0.122-2.115-0.368c-0.57-0.246-1.018-0.614-1.34-1.106
		C199.673,41.241,199.503,40.685,199.486,40.062z"/>
	<path fill="#ED2024" d="M213.3,43.644c-0.952,0-1.817-0.235-2.573-0.699c-0.758-0.467-1.34-1.108-1.729-1.911
		c-0.384-0.788-0.576-1.634-0.576-2.513c0-1.651,0.457-2.975,1.361-3.927c0.612-0.644,1.348-1.075,2.196-1.288l1.112-2.341h2.66
		l-1.75,2.228c0.666,0.086,1.287,0.297,1.851,0.633c0.758,0.452,1.346,1.09,1.744,1.897c0.389,0.789,0.586,1.692,0.586,2.688
		c0,1.01-0.207,1.929-0.617,2.729c-0.42,0.819-1.024,1.45-1.797,1.873C215.009,43.431,214.18,43.644,213.3,43.644z M213.314,35.073
		c-0.766,0-1.404,0.254-1.953,0.777c-0.537,0.512-0.809,1.418-0.809,2.688c0,1.02,0.258,1.788,0.787,2.354
		c0.521,0.562,1.162,0.832,1.955,0.832c0.807,0,1.451-0.272,1.971-0.838c0.52-0.566,0.783-1.402,0.783-2.482
		c0-0.691-0.117-1.301-0.346-1.805c-0.223-0.49-0.535-0.857-0.961-1.125C214.315,35.204,213.848,35.073,213.314,35.073z"/>
	<path fill="#ED2024" d="M208.852,38.521c0-1.545,0.414-2.754,1.244-3.627c0.829-0.874,1.899-1.311,3.211-1.311
		c0.858,0,1.635,0.205,2.323,0.616c0.688,0.411,1.216,0.983,1.578,1.717c0.36,0.732,0.541,1.566,0.541,2.498
		c0,0.943-0.188,1.788-0.569,2.531c-0.382,0.744-0.92,1.31-1.619,1.69c-0.697,0.384-1.451,0.575-2.261,0.575
		c-0.875,0-1.657-0.212-2.348-0.635c-0.689-0.424-1.214-1.001-1.568-1.733C209.029,40.11,208.852,39.336,208.852,38.521z
		 M210.121,38.538c0,1.122,0.301,2.005,0.904,2.648c0.604,0.646,1.359,0.97,2.27,0.97c0.928,0,1.689-0.326,2.289-0.978
		c0.6-0.652,0.896-1.576,0.896-2.775c0-0.756-0.127-1.418-0.383-1.981c-0.256-0.565-0.631-1.003-1.123-1.315
		c-0.494-0.311-1.047-0.466-1.66-0.466c-0.873,0-1.623,0.299-2.25,0.898C210.436,36.138,210.121,37.138,210.121,38.538z
		 M212.52,33.174l0.847-1.777h1.497l-1.396,1.777H212.52z"/>
	<path fill="#ED2024" d="M224.007,43.644c-1.086,0-1.987-0.229-2.685-0.685c-0.698-0.453-1.235-1.115-1.598-1.967
		c-0.351-0.824-0.524-1.722-0.524-2.664c0-1.033,0.202-1.953,0.604-2.733c0.406-0.795,0.998-1.41,1.758-1.825
		c0.742-0.408,1.57-0.615,2.463-0.615c1.021,0,1.898,0.268,2.605,0.797c0.709,0.529,1.207,1.277,1.482,2.225l0.127,0.438
		l-2.045,0.481l-0.121-0.383c-0.186-0.585-0.451-1.011-0.787-1.265c-0.336-0.253-0.758-0.376-1.289-0.376
		c-0.621,0-1.139,0.146-1.543,0.434c-0.408,0.292-0.688,0.674-0.852,1.167c-0.182,0.531-0.271,1.085-0.271,1.649
		c0,0.732,0.105,1.378,0.316,1.916c0.195,0.502,0.488,0.865,0.896,1.109c0.422,0.254,0.865,0.377,1.357,0.377
		c0.592,0,1.072-0.164,1.477-0.498c0.398-0.332,0.678-0.85,0.826-1.529l0.094-0.438l2.084,0.527l-0.107,0.42
		c-0.279,1.101-0.799,1.955-1.543,2.545C225.986,43.343,225.07,43.644,224.007,43.644z"/>
	<path fill="#ED2024" d="M226.628,39.789l1.229,0.312c-0.258,1.012-0.724,1.782-1.394,2.313c-0.672,0.53-1.489,0.796-2.459,0.796
		c-1.004,0-1.819-0.204-2.446-0.611c-0.629-0.408-1.106-1-1.437-1.773c-0.33-0.774-0.492-1.606-0.492-2.495
		c0-0.97,0.187-1.813,0.558-2.536c0.369-0.721,0.896-1.27,1.58-1.644c0.685-0.375,1.437-0.562,2.256-0.562
		c0.933,0,1.715,0.237,2.351,0.711c0.635,0.474,1.076,1.141,1.326,1.999l-1.214,0.286c-0.215-0.677-0.528-1.17-0.938-1.479
		c-0.409-0.309-0.926-0.463-1.549-0.463c-0.715,0-1.313,0.171-1.793,0.514c-0.479,0.343-0.817,0.803-1.013,1.38
		c-0.194,0.576-0.293,1.174-0.293,1.785c0,0.791,0.115,1.482,0.347,2.072c0.23,0.59,0.59,1.031,1.076,1.324
		c0.485,0.291,1.014,0.438,1.581,0.438c0.689,0,1.273-0.199,1.753-0.597C226.134,41.162,226.458,40.571,226.628,39.789z"/>
	<polygon fill="#ED2024" points="240.082,43.483 236.93,39.004 235.9,40.009 235.9,43.483 233.807,43.483 233.807,33.313 
		235.9,33.313 235.9,37.317 239.91,33.313 242.828,33.313 238.428,37.563 242.785,43.483 	"/>
	<path fill="#ED2024" d="M234.238,43.051v-9.305h1.23v4.614l4.621-4.614h1.67l-3.904,3.771l4.076,5.534h-1.625l-3.314-4.709
		l-1.521,1.484v3.225H234.238z"/>
	<polygon fill="#ED2024" points="249.283,43.483 249.283,39.099 245.311,39.099 245.311,43.483 243.214,43.483 243.214,33.313 
		245.311,33.313 245.311,37.135 249.283,37.135 249.283,33.313 251.378,33.313 251.378,43.483 	"/>
	<path fill="#ED2024" d="M243.646,43.051v-9.305h1.232v3.821h4.836v-3.821h1.23v9.305h-1.23v-4.386h-4.836v4.386H243.646z"/>
	<path fill="#ED2024" d="M259.635,43.483l-1.087-2.818h-3.291l-1.021,2.818h-2.238l3.793-9.877h-0.396l1.256-2.642h2.66
		l-1.848,2.349h0.352l4.162,10.17H259.635z M257.839,38.798c0,0-0.896-2.38-0.959-2.559c-0.045,0.138-0.094,0.273-0.146,0.41
		l-0.803,2.146L257.839,38.798L257.839,38.798z"/>
	<path fill="#ED2024" d="M252.625,43.051l3.574-9.305h1.326l3.809,9.305h-1.4l-1.086-2.817h-3.893l-1.021,2.817H252.625z
		 M255.311,39.229h3.153l-0.971-2.578c-0.296-0.781-0.517-1.425-0.66-1.928c-0.117,0.597-0.285,1.189-0.502,1.777L255.311,39.229z
		 M256.078,33.174l0.846-1.777h1.498l-1.396,1.777H256.078z"/>
	<path fill="#ED2024" d="M266.986,43.644c-1.086,0-1.988-0.229-2.684-0.685c-0.699-0.453-1.236-1.115-1.598-1.967
		c-0.352-0.824-0.525-1.722-0.525-2.664c0-1.033,0.203-1.953,0.604-2.733c0.408-0.795,0.998-1.41,1.758-1.825
		c0.742-0.408,1.572-0.615,2.463-0.615c1.021,0,1.9,0.268,2.607,0.797c0.709,0.529,1.207,1.277,1.482,2.225l0.127,0.438
		l-2.045,0.481l-0.121-0.383c-0.186-0.585-0.451-1.011-0.787-1.265c-0.336-0.253-0.758-0.376-1.289-0.376
		c-0.621,0-1.139,0.146-1.543,0.434c-0.408,0.292-0.688,0.674-0.852,1.167c-0.184,0.531-0.271,1.085-0.271,1.649
		c0,0.732,0.105,1.378,0.316,1.916c0.195,0.502,0.488,0.865,0.896,1.109c0.422,0.254,0.865,0.377,1.359,0.377
		c0.59,0,1.071-0.164,1.475-0.498c0.4-0.332,0.679-0.85,0.826-1.529l0.094-0.438l2.084,0.527l-0.106,0.42
		c-0.278,1.101-0.799,1.955-1.543,2.545C268.964,43.343,268.048,43.644,266.986,43.644z"/>
	<path fill="#ED2024" d="M269.607,39.789l1.23,0.312c-0.258,1.012-0.725,1.782-1.395,2.313c-0.672,0.53-1.488,0.796-2.459,0.796
		c-1.004,0-1.818-0.204-2.445-0.611c-0.629-0.408-1.107-1-1.438-1.773c-0.33-0.774-0.492-1.606-0.492-2.495
		c0-0.97,0.188-1.813,0.559-2.536c0.369-0.721,0.896-1.27,1.58-1.644c0.684-0.375,1.436-0.562,2.256-0.562
		c0.932,0,1.715,0.237,2.35,0.711c0.635,0.474,1.076,1.141,1.326,1.999l-1.213,0.286c-0.215-0.677-0.529-1.17-0.939-1.479
		s-0.926-0.463-1.549-0.463c-0.715,0-1.313,0.171-1.793,0.514c-0.48,0.343-0.818,0.803-1.012,1.38
		c-0.195,0.576-0.293,1.174-0.293,1.785c0,0.791,0.115,1.482,0.346,2.072s0.59,1.031,1.076,1.324
		c0.486,0.291,1.014,0.438,1.582,0.438c0.688,0,1.271-0.199,1.752-0.597C269.113,41.162,269.438,40.571,269.607,39.789z"/>
	<polygon fill="#ED2024" points="278.682,43.483 278.682,39.099 274.707,39.099 274.707,43.483 272.613,43.483 272.613,33.313 
		274.707,33.313 274.707,37.135 278.682,37.135 278.682,33.313 280.775,33.313 280.775,43.483 	"/>
	<path fill="#ED2024" d="M273.044,43.051v-9.305h1.229v3.821h4.838v-3.821h1.23v9.305h-1.23v-4.386h-4.838v4.386H273.044z"/>
	<polygon fill="#ED2024" points="292.98,43.483 292.98,39.099 289.007,39.099 289.007,43.483 286.912,43.483 286.912,33.313 
		289.007,33.313 289.007,37.135 292.98,37.135 292.98,33.313 295.076,33.313 295.076,43.483 	"/>
	<path fill="#ED2024" d="M287.344,43.051v-9.305h1.231v3.821h4.836v-3.821h1.231v9.305h-1.231v-4.386h-4.836v4.386H287.344z"/>
	<path fill="#ED2024" d="M303.332,43.483l-1.086-2.818h-3.291l-1.021,2.818h-2.24l3.906-10.17h0.606l-1.938-2.349h2.719l1.273,2.642
		h-0.628l4.041,9.877H303.332z M301.537,38.798c0,0-0.895-2.38-0.959-2.559c-0.045,0.138-0.094,0.273-0.145,0.41l-0.803,2.146
		L301.537,38.798L301.537,38.798z"/>
	<path fill="#ED2024" d="M296.322,43.051l3.574-9.305h1.326l3.809,9.305h-1.402l-1.086-2.817h-3.891l-1.021,2.817H296.322z
		 M299.007,39.229h3.154l-0.972-2.578c-0.295-0.781-0.517-1.425-0.66-1.928c-0.116,0.597-0.284,1.189-0.502,1.777L299.007,39.229z
		 M301.572,33.174h-0.92l-1.467-1.777h1.529L301.572,33.174z"/>
	<polygon fill="#ED2024" points="312.49,43.483 308.264,37.162 308.264,43.483 306.221,43.483 306.221,33.313 308.146,33.313 
		312.371,39.629 312.371,33.313 314.416,33.313 314.416,43.483 	"/>
	<path fill="#ED2024" d="M306.652,43.051v-9.305h1.264l4.889,7.306v-7.306h1.182v9.305h-1.264l-4.891-7.312v7.312H306.652z"/>
	<path fill="#ED2024" d="M321.146,43.644c-0.98,0-1.887-0.215-2.691-0.639c-0.822-0.431-1.453-1.063-1.875-1.882
		c-0.412-0.802-0.619-1.703-0.619-2.681c0-0.967,0.205-1.883,0.611-2.726c0.416-0.865,1.029-1.518,1.818-1.941
		c0.771-0.413,1.666-0.623,2.662-0.623c0.723,0,1.391,0.121,1.984,0.357c0.611,0.247,1.104,0.598,1.457,1.044
		c0.344,0.434,0.605,1,0.783,1.683l0.104,0.412l-1.93,0.529l-0.119-0.406c-0.125-0.42-0.275-0.75-0.451-0.979
		c-0.158-0.209-0.398-0.382-0.713-0.515c-0.33-0.14-0.705-0.21-1.111-0.21c-0.504,0-0.938,0.075-1.295,0.224
		c-0.35,0.145-0.631,0.335-0.84,0.567c-0.217,0.24-0.389,0.51-0.51,0.799c-0.213,0.52-0.322,1.094-0.322,1.705
		c0,0.756,0.129,1.391,0.383,1.885c0.242,0.479,0.59,0.822,1.055,1.055c0.49,0.242,0.996,0.36,1.551,0.36
		c0.475,0,0.943-0.093,1.396-0.276c0.369-0.147,0.666-0.305,0.887-0.464v-1.093h-2.734v-1.955l4.805-0.008v4.094l-0.162,0.129
		c-0.639,0.51-1.309,0.898-1.99,1.156C322.589,43.51,321.873,43.644,321.146,43.644z"/>
	<path fill="#ED2024" d="M321.059,39.401V38.31l3.94-0.006v3.452c-0.604,0.481-1.229,0.847-1.873,1.091
		c-0.644,0.241-1.304,0.363-1.979,0.363c-0.914,0-1.744-0.195-2.489-0.587c-0.748-0.392-1.312-0.957-1.691-1.698
		c-0.381-0.74-0.571-1.566-0.571-2.48c0-0.905,0.188-1.752,0.567-2.536c0.379-0.785,0.925-1.368,1.636-1.749
		c0.711-0.381,1.528-0.571,2.457-0.571c0.672,0,1.278,0.109,1.823,0.327c0.543,0.218,0.972,0.522,1.279,0.911
		c0.307,0.389,0.543,0.896,0.704,1.522l-1.11,0.305c-0.142-0.475-0.313-0.846-0.521-1.116c-0.207-0.271-0.504-0.488-0.89-0.65
		c-0.385-0.163-0.813-0.245-1.28-0.245c-0.563,0-1.051,0.085-1.461,0.257c-0.41,0.171-0.74,0.396-0.992,0.676
		c-0.252,0.279-0.446,0.586-0.588,0.92c-0.235,0.574-0.354,1.197-0.354,1.873c0,0.828,0.144,1.521,0.428,2.082
		c0.287,0.559,0.703,0.973,1.248,1.242c0.548,0.271,1.125,0.406,1.74,0.406c0.532,0,1.053-0.104,1.562-0.309
		c0.508-0.205,0.894-0.424,1.155-0.656v-1.732H321.059L321.059,39.401z"/>
</g>
</svg>
